<svg width="284" height="81" viewBox="0 0 284 81" fill="none" xmlns="http://www.w3.org/2000/svg">
<g clip-path="url(#clip0_62_2)">
<rect width="284" height="81" fill="white"/>
<path d="M236.204 13.525C234.936 13.525 233.783 13.0639 232.746 12.1417C231.823 11.1042 231.362 9.89378 231.362 8.51045V4.0146C231.362 2.63126 231.823 1.47848 232.746 0.55625C233.783 -0.481253 234.936 -1 236.204 -1H260.067C261.45 -1 262.603 -0.481253 263.525 0.55625C264.562 1.47848 265.081 2.63126 265.081 4.0146V8.51045C265.081 9.89378 264.562 11.1042 263.525 12.1417C262.603 13.0639 261.45 13.525 260.067 13.525H236.204ZM274.765 69.5502C273.381 69.5502 272.171 69.0314 271.133 67.9939C270.211 66.9564 269.75 65.8036 269.75 64.5356V21.4792C269.75 20.0959 270.211 18.9431 271.133 18.0209C272.171 16.9834 273.381 16.4646 274.765 16.4646H279.26C280.644 16.4646 281.797 16.9834 282.719 18.0209C283.756 18.9431 284.275 20.0959 284.275 21.4792V64.5356C284.275 65.8036 283.756 66.9564 282.719 67.9939C281.797 69.0314 280.644 69.5502 279.26 69.5502H274.765ZM217.01 69.5502C215.742 69.5502 214.589 69.0314 213.552 67.9939C212.514 66.9564 211.996 65.8036 211.996 64.5356V21.4792C211.996 20.0959 212.514 18.9431 213.552 18.0209C214.589 16.9834 215.742 16.4646 217.01 16.4646H221.679C223.062 16.4646 224.215 16.9834 225.137 18.0209C226.175 18.9431 226.694 20.0959 226.694 21.4792V64.5356C226.694 65.8036 226.175 66.9564 225.137 67.9939C224.215 69.0314 223.062 69.5502 221.679 69.5502H217.01ZM236.204 81.8273C234.936 81.8273 233.783 81.3085 232.746 80.271C231.823 79.2335 231.362 78.0808 231.362 76.8127V72.1439C231.362 70.8759 231.823 69.7231 232.746 68.6856C233.783 67.6481 234.936 67.1293 236.204 67.1293H260.067C261.45 67.1293 262.603 67.6481 263.525 68.6856C264.562 69.7231 265.081 70.8759 265.081 72.1439V76.8127C265.081 78.0808 264.562 79.2335 263.525 80.271C262.603 81.3085 261.45 81.8273 260.067 81.8273H236.204Z" fill="#17181A"/>
<path d="M91.1827 82.0002C89.9389 82.0002 88.8082 81.4805 87.7906 80.441C86.886 79.4015 86.4337 78.2466 86.4337 76.9761V72.2985C86.4337 71.0281 86.886 69.8731 87.7906 68.8337C88.8082 67.7942 89.9389 67.2745 91.1827 67.2745H114.589C115.945 67.2745 117.076 67.7942 117.981 68.8337C118.998 69.8731 119.507 71.0281 119.507 72.2985V76.9761C119.507 78.2466 118.998 79.4015 117.981 80.441C117.076 81.4805 115.945 82.0002 114.589 82.0002H91.1827ZM72.3563 71.416C71.1125 71.416 69.9818 70.8962 68.9641 69.8568C67.9465 68.8173 67.4377 67.6623 67.4377 66.3919V23.2542C67.4377 21.8682 67.9465 20.7132 68.9641 19.7893C69.9818 18.7498 71.1125 18.2301 72.3563 18.2301H76.9357C78.2925 18.2301 79.4233 18.7498 80.3278 19.7893C81.3455 20.7132 81.8543 21.8682 81.8543 23.2542V33.6488C81.8543 34.5728 81.6847 35.5545 81.3455 36.5939C81.0063 37.6334 80.554 38.5574 79.9886 39.3658C81.5716 38.0954 83.4373 37.4602 85.5857 37.4602H120.355C122.504 37.4602 124.369 38.0954 125.952 39.3658C124.709 37.7489 124.087 35.8432 124.087 33.6488V23.2542C124.087 21.8682 124.539 20.7132 125.443 19.7893C126.461 18.7498 127.648 18.2301 129.005 18.2301H133.415C134.772 18.2301 135.903 18.7498 136.807 19.7893C137.825 20.7132 138.334 21.8682 138.334 23.2542V47.1618C138.334 48.4323 137.825 49.5872 136.807 50.6267C135.903 51.5507 134.772 52.0127 133.415 52.0127H85.5857C83.4373 52.0127 81.5716 51.3774 79.9886 50.107C80.554 50.9154 81.0063 51.8971 81.3455 53.0521C81.6847 54.0916 81.8543 55.0733 81.8543 55.9973V66.3919C81.8543 67.6623 81.3455 68.8173 80.3278 69.8568C79.4233 70.8962 78.2925 71.416 76.9357 71.416H72.3563ZM91.1827 15.2817C89.9389 15.2817 88.8082 14.8197 87.7906 13.8957C86.886 12.8562 86.4337 11.6435 86.4337 10.2576V5.75325C86.4337 4.36729 86.886 3.21233 87.7906 2.28836C88.8082 1.2489 89.9389 0.729172 91.1827 0.729172H114.589C115.945 0.729172 117.076 1.2489 117.981 2.28836C118.998 3.21233 119.507 4.36729 119.507 5.75325V10.2576C119.507 11.6435 118.998 12.8562 117.981 13.8957C117.076 14.8197 115.945 15.2817 114.589 15.2817H91.1827Z" fill="#17181A"/>
<path d="M24.2084 46.996C22.9403 46.996 21.7876 46.5348 20.75 45.6126C19.8278 44.5751 19.3667 43.4223 19.3667 42.1543V37.4855C19.3667 36.1022 19.8278 34.9494 20.75 34.0272C21.7876 32.9897 22.9403 32.4709 24.2084 32.4709H28.8771C30.2605 32.4709 31.4133 32.9897 32.3355 34.0272C33.373 34.9494 33.8917 36.1022 33.8917 37.4855V42.1543C33.8917 43.4223 33.373 44.5751 32.3355 45.6126C31.4133 46.5348 30.2605 46.996 28.8771 46.996H24.2084ZM5.0146 80.3689C3.74654 80.3689 2.59376 79.8502 1.55625 78.8127C0.518751 77.7752 0 76.6224 0 75.3544V51.4918C0 50.1085 0.518751 48.9557 1.55625 48.0335C2.59376 46.9959 3.74654 46.4772 5.0146 46.4772H9.68335C11.0667 46.4772 12.2195 46.9959 13.1417 48.0335C14.1792 48.9557 14.698 50.1085 14.698 51.4918V61.8668C14.698 62.789 14.525 63.7689 14.1792 64.8064C13.8334 65.8439 13.3723 66.7661 12.7959 67.5731C13.6028 66.9967 14.525 66.5356 15.5625 66.1897C16.6 65.8439 17.5799 65.671 18.5021 65.671H48.0709C49.4543 65.671 50.6071 66.1897 51.5293 67.2272C52.5668 68.2647 53.0855 69.4175 53.0855 70.6856V75.3544C53.0855 76.6224 52.5668 77.7752 51.5293 78.8127C50.6071 79.8502 49.4543 80.3689 48.0709 80.3689H5.0146ZM43.5751 34.7188C42.1918 34.7188 40.9813 34.2577 39.9438 33.3355C39.0216 32.298 38.5605 31.0876 38.5605 29.7042V19.3292C38.5605 17.1389 39.1945 15.2368 40.4626 13.623C38.8487 14.891 36.889 15.525 34.5834 15.525H5.0146C3.74654 15.525 2.59376 15.0639 1.55625 14.1417C0.518751 13.1042 0 11.8938 0 10.5104V6.0146C0 4.63126 0.518751 3.47848 1.55625 2.55625C2.59376 1.51875 3.74654 1 5.0146 1H48.0709C49.4543 1 50.6071 1.51875 51.5293 2.55625C52.5668 3.47848 53.0855 4.63126 53.0855 6.0146V29.7042C53.0855 31.0876 52.5668 32.298 51.5293 33.3355C50.6071 34.2577 49.4543 34.7188 48.0709 34.7188H43.5751Z" fill="#17181A"/>
<path d="M242.775 44.9959C243.812 45.9182 244.965 46.3793 246.233 46.3793H250.902C252.285 46.3793 253.438 45.9182 254.36 44.9959C255.398 43.9584 255.917 42.8057 255.917 41.5376V36.8688C255.917 35.4855 255.398 34.3327 254.36 33.4105C253.438 32.373 252.285 31.8542 250.902 31.8542H246.233C244.965 31.8542 243.812 32.373 242.775 33.4105C241.853 34.3327 241.392 35.4855 241.392 36.8688V41.5376C241.392 42.8057 241.853 43.9584 242.775 44.9959Z" fill="#0035AB"/>
<path d="M156.489 80.0981C155.221 80.0981 154.068 79.5794 153.031 78.5419C151.993 77.5044 151.475 76.3516 151.475 75.0835V5.74377C151.475 4.36043 151.993 3.20765 153.031 2.28542C154.068 1.24792 155.221 0.729172 156.489 0.729172H199.546C200.929 0.729172 202.082 1.24792 203.004 2.28542C204.041 3.20765 204.56 4.36043 204.56 5.74377V10.2396C204.56 11.623 204.041 12.8334 203.004 13.8709C202.082 14.7931 200.929 15.2542 199.546 15.2542H169.977C167.787 15.2542 167.73 15.4271 166 15.4271C166.577 16.2341 166.199 15.5143 166.173 16.2917C166.135 17.3792 166.173 16.457 166.173 17.3792V75.0835C166.173 76.3516 165.654 77.5044 164.616 78.5419C163.694 79.5794 162.541 80.0981 161.158 80.0981H156.489Z" fill="#17181A"/>
</g>
<defs>
<clipPath id="clip0_62_2">
<rect width="284" height="81" fill="white"/>
</clipPath>
</defs>
</svg>
